Coordinates
version=1
nRows=26
nColumns=24
inDegrees=yes

Units are S.I. units (second, meters, Newtons, ...)
Angles are in degrees.

endheader
time	pelvis_tilt	pelvis_list	pelvis_rotation	pelvis_tx	pelvis_ty	pelvis_tz	hip_flexion_r	hip_adduction_r	hip_rotation_r	knee_angle_r	ankle_angle_r	subtalar_angle_r	mtp_angle_r	hip_flexion_l	hip_adduction_l	hip_rotation_l	knee_angle_l	ankle_angle_l	subtalar_angle_l	mtp_angle_l	lumbar_extension	lumbar_bending	lumbar_rotation
      1.04966667	      5.82310192	     -6.23791826	     10.74387618	      0.55415304	      1.03389597	      0.27304926	      5.19874178	     12.69778538	     -5.20662434	    -17.67274027	      9.97345627	     -6.47010153	      3.43214602	     17.47681207	     -7.33456925	      3.98609861	    -58.33727436	     10.29601219	      0.17606723	      5.34732588	     -4.22520767	      5.33783962	     -2.43497708
      1.05383333	      5.87022665	     -6.05054098	     10.52823494	      0.55841949	      1.03508994	      0.27350469	      4.58350903	     12.58109986	     -4.99223661	    -17.20307607	     10.01375732	     -6.28737709	      3.43640544	     17.67475349	     -7.05339107	      3.80739814	    -57.27221340	     10.24171787	     -0.69440197	      5.21278683	     -4.35833555	      5.13092923	     -2.27429146
      1.05800000	      5.90886388	     -5.86251592	     10.29763132	      0.56267160	      1.03625332	      0.27394632	      3.98766432	     12.45476462	     -4.76868839	    -16.75112941	     10.01639810	     -6.09777080	      3.43954640	     17.85941212	     -6.77416538	      3.61684934	    -56.16465688	     10.18632387	     -1.56576982	      5.09254754	     -4.50400237	      4.94445422	     -2.11639993
      1.06216667	      5.95907258	     -5.68845191	     10.10620146	      0.56693579	      1.03735094	      0.27434731	      3.37313501	     12.34193337	     -4.58702261	    -16.26696645	     10.04199513	     -5.89947771	      3.44510845	     18.03661037	     -6.51005007	      3.46148755	    -55.03829696	     10.05075379	     -2.44601892	      4.92557487	     -4.63113127	      4.73648875	     -1.90610721
      1.06633333	      6.00207052	     -5.50902469	      9.89792795	      0.57119535	      1.03840456	      0.27474555	      2.77611413	     12.21729173	     -4.38835452	    -15.80605496	     10.05941454	     -5.70747648	      3.45172933	     18.19773336	     -6.24486034	      3.29195137	    -53.87051421	      9.90977513	     -3.29559507	      4.73318091	     -4.76198938	      4.54148279	     -1.71648780
      1.07050000	      6.02191672	     -5.32815598	      9.66137411	      0.57544141	      1.03936027	      0.27517078	      2.22039554	     12.08359987	     -4.16011083	    -15.38187089	     10.07259150	     -5.53854967	      3.45733764	     18.36604263	     -5.98699705	      3.09177086	    -52.67496772	      9.76702543	     -4.09533785	      4.56904172	     -4.88006253	      4.35418163	     -1.57092902
      1.07466667	      6.05620166	     -5.17055015	      9.46236293	      0.57970490	      1.04027590	      0.27552305	      1.64227200	     11.97066681	     -3.98178895	    -14.92133778	     10.09272575	     -5.32916717	      3.58711508	     18.52253282	     -5.74346048	      2.94624589	    -51.47164615	      9.65413848	     -4.84586529	      1.42276111	     -4.97935781	      4.17506176	     -1.35018121
      1.07883333	      6.06752706	     -5.01541225	      9.23660779	      0.58395049	      1.04108063	      0.27592126	      1.10447476	     11.85887711	     -3.74154138	    -14.49473292	     10.09964526	     -5.21196796	      3.58697625	     18.68840721	     -5.51969450	      2.75923155	    -50.23323435	      9.46500428	     -5.52917398	      1.38377308	     -5.07833050	      4.00355822	     -1.23656374
      1.08300000	      6.10319832	     -4.86757041	      9.03853971	      0.58821327	      1.04186644	      0.27627270	      0.53180225	     11.75585622	     -3.53223294	    -14.03815384	     10.10749195	     -5.07922898	      3.58841858	     18.82110062	     -5.29722985	      2.61916502	    -48.97294350	      9.23026033	     -6.20440474	      1.31838421	     -5.18140763	      3.83455995	     -1.06587558
      1.08716667	      6.08518273	     -4.73621301	      8.82021590	      0.59247514	      1.04249582	      0.27663899	      0.03533485	     11.65745154	     -3.30369679	    -13.61535296	     10.11723012	     -4.95943925	      3.59126021	     19.00539107	     -5.09139225	      2.46857754	    -47.70130428	      8.99476114	     -6.79901013	      1.23429794	     -5.22555309	      3.68466126	     -0.91090964
      1.09133333	      6.09105627	     -4.60730274	      8.59630540	      0.59673804	      1.04310030	      0.27700013	     -0.48402947	     11.56171913	     -3.06681607	    -13.19650996	     10.12749923	     -4.85239306	      3.59557845	     19.15044405	     -4.89842345	      2.31235322	    -46.40875371	      8.75620630	     -7.30967852	      1.13780715	     -5.29494351	      3.53787616	     -0.76179123
      1.09550000	      6.07186712	     -4.48846506	      8.35376118	      0.60098830	      1.04359467	      0.27739082	     -0.95731818	     11.46985304	     -2.81656131	    -12.81438568	     10.13303346	     -4.75026996	      3.60049752	     19.31502666	     -4.72180025	      2.14662622	    -45.10644964	      8.52344897	     -7.71622036	      1.04444716	     -5.34839448	      3.40197672	     -0.63693168
      1.09966667	      6.05659586	     -4.38895657	      8.12765847	      0.60524975	      1.04402684	      0.27773606	     -1.44203534	     11.39641491	     -2.56348346	    -12.40442147	     10.13435641	     -4.67356608	      3.60705460	     19.47300895	     -4.55892703	      2.01878346	    -43.79335698	      8.26931227	     -8.09135636	      0.93336508	     -5.38669453	      3.28949200	     -0.48605959
      1.10383333	      6.03279232	     -4.29171507	      7.89200481	      0.60950868	      1.04438670	      0.27810728	     -1.90618895	     11.32259773	     -2.30251793	    -12.01752547	     10.13943364	     -4.60422417	      3.61512417	     19.63052937	     -4.40614823	      1.88235155	    -42.46957694	      8.02235302	     -8.36700249	      0.82203213	     -5.41875792	      3.17334903	     -0.34825860
      1.10800000	      5.98720886	     -4.22906016	      7.67348450	      0.61378184	      1.04461896	      0.27843864	     -2.34890719	     11.28178653	     -2.03766324	    -11.61070454	     10.13754917	     -4.57072951	      3.62791409	     19.82102633	     -4.27820424	      1.79392917	    -41.15986409	      7.76710907	     -8.61586953	      0.67313392	     -5.41066556	      3.09203127	     -0.17452908
      1.11216667	      5.95039828	     -4.15899148	      7.43033679	      0.61804385	      1.04481951	      0.27880829	     -2.78703720	     11.22938250	     -1.75761572	    -11.23948308	     10.14354066	     -4.53123360	      3.64309218	     19.98331666	     -4.15797568	      1.67949870	    -39.83063488	      7.52961738	     -8.74963631	      0.52500419	     -5.42261350	      3.00688548	     -0.03300924
      1.11633333	      5.88588166	     -4.10601457	      7.18423084	      0.62231115	      1.04491331	      0.27918249	     -3.18711229	     11.18923538	     -1.46936264	    -10.87927073	     10.13987971	     -4.51136190	      3.66262614	     20.17306444	     -4.05360318	      1.58234478	    -38.50263028	      7.29146586	     -8.82962769	      0.36172880	     -5.40122081	      2.93433882	      0.11854564
      1.12050000	      5.82280337	     -4.05412123	      6.93078113	      0.62658205	      1.04497052	      0.27956761	     -3.58395304	     11.14744991	     -1.17373851	    -10.53039272	     10.14500041	     -4.49243417	      3.68522826	     20.34862405	     -3.95594821	      1.48823734	    -37.16319346	      7.05905353	     -8.84333541	      0.19958263	     -5.37860726	      2.86344002	      0.26154475
      1.12466667	      5.74848159	     -4.01415786	      6.67239841	      0.63085446	      1.04494157	      0.27996140	     -3.95953635	     11.11350333	     -0.87651362	    -10.19718695	     10.15556085	     -4.48537591	      3.71109715	     20.53319549	     -3.87492040	      1.40094740	    -35.82830270	      6.83632775	     -8.80448047	      0.04140537	     -5.34196940	      2.80414536	      0.40482398
      1.12883333	      5.62630369	     -3.99748015	      6.40427124	      0.63511952	      1.04476058	      0.28037939	     -4.25429268	     11.09360873	     -0.60704674	     -9.92000485	     10.18434336	     -4.42796948	      3.72872086	     20.77522124	     -3.82354795	      1.30759724	    -34.51207971	      6.63985466	     -8.66320675	     -0.04627802	     -5.24840812	      2.75397462	      0.47608479
      1.13300000	      5.53431850	     -3.96926545	      6.13611126	      0.63939571	      1.04461777	      0.28079082	     -4.59417862	     11.06253447	     -0.31861701	     -9.61948428	     10.21792693	     -4.39094373	      3.74625147	     20.96538088	     -3.76383867	      1.22791855	    -33.17730074	      6.42875289	     -8.53123094	     -0.12613412	     -5.19892983	      2.70565146	      0.58773729
      1.13716667	      5.44282374	     -3.96826797	      5.87539824	      0.64366104	      1.04439859	      0.28119550	     -4.94301100	     11.06560559	      0.03762813	     -9.29018541	     10.20701235	     -4.48887991	      3.78545495	     21.15421765	     -3.72512387	      1.20960135	    -31.84710917	      6.22199867	     -8.44229571	     -0.29300694	     -5.13118369	      2.69160027	      0.84464281
      1.14133333	      5.31977681	     -3.96748780	      5.59461262	      0.64793616	      1.04410411	      0.28164834	     -5.21882522	     11.05432423	      0.30809016	     -9.04948463	     10.25968369	     -4.42965914	      3.80811874	     21.37167376	     -3.70671145	      1.13874812	    -30.52760926	      6.04327352	     -8.22830381	     -0.36959558	     -5.03166197	      2.65880544	      0.90049934
      1.14550000	      5.18571809	     -3.96615959	      5.32365509	      0.65222285	      1.04374436	      0.28207725	     -5.49260574	     11.03996738	      0.59033170	     -8.78599504	     10.32186212	     -4.37652778	      3.82757789	     21.59877931	     -3.68465017	      1.08719129	    -29.21901582	      5.86809534	     -8.02443913	     -0.42903785	     -4.93807491	      2.64960155	      0.98747895
      1.14966667	      5.04714299	     -3.98155125	      5.03225615	      0.65649688	      1.04333544	      0.28255498	     -5.74177683	     11.04203762	      0.89918775	     -8.56579750	     10.38346925	     -4.37239640	      3.85154494	     21.82036208	     -3.69078152	      1.04180460	    -27.90706493	      5.68739723	     -7.83826420	     -0.49855806	     -4.82207574	      2.62901875	      1.12741359
      1.15383333	      4.94716110	     -4.01115152	      4.75368581	      0.66076237	      1.04295402	      0.28303043	     -6.05158052	     11.06608482	      1.25804827	     -8.29670576	     10.39827050	     -4.45497067	      3.89998628	     21.99518191	     -3.71266185	      1.04316667	    -26.59841459	      5.52604730	     -7.68141445	     -0.63402918	     -4.74641884	      2.64270034	      1.40294325
